<svg width="906" height="278" viewBox="0 0 906 278" fill="none" xmlns="http://www.w3.org/2000/svg">
<path d="M906 0H0V278H906V0Z" fill="white"/>
<path d="M192.527 41.9212C180.601 48.8727 168.44 55.8007 158.271 67.4417C148.807 78.0692 146.345 96.1905 152.04 109.858C158.161 123.164 166.104 135.356 175.591 146.006C169.231 110.201 175.272 73.0719 192.527 41.9212Z" fill="#37A58C"/>
<path d="M182.614 152.933C194.325 161.11 206.037 169.052 219.654 172.516C234.512 176.24 248.258 169.547 257.036 156.398C263.871 143.993 269.211 130.661 272.922 116.739C247.939 140.712 215.753 153.612 182.614 152.933Z" fill="#DD0060"/>
<path d="M270.653 53.0672C267.814 47.3457 263.743 42.4783 258.797 38.8916C253.851 35.305 248.181 33.1087 242.284 32.4953C228.95 31.9338 215.61 33.433 202.654 36.949C231.922 47.4353 261.232 74.134 276.069 105.121C276.733 87.2831 277.461 68.1957 270.653 53.0672Z" fill="#505050"/>
<path d="M753.666 230.437C755.444 225.063 756.216 219.348 755.936 213.637V105.239H722.215V212.788C722.229 213.809 722.06 214.824 721.718 215.773C721.376 216.723 720.867 217.588 720.221 218.322C719.575 219.055 718.804 219.64 717.952 220.045C717.1 220.451 716.184 220.667 715.256 220.682H714.528C712.696 220.818 710.889 220.151 709.501 218.827C708.113 217.503 707.258 215.629 707.12 213.613V105.216H673.549V213.613C673.225 219.323 673.953 225.046 675.69 230.437C677.066 233.663 679.071 236.515 681.561 238.792C684.051 241.068 686.966 242.714 690.099 243.611C693.113 244.232 696.176 244.516 699.242 244.459H730.051C733.129 244.523 736.205 244.255 739.236 243.657C742.38 242.767 745.305 241.119 747.8 238.832C750.296 236.546 752.299 233.68 753.666 230.437Z" fill="black"/>
<path d="M594.674 105.169C583.777 105.169 576.176 115.537 576.262 127.932V244.459H610.518V186.608H624.477V244.459H658.562V105.169H594.674ZM624.434 162.714H610.539V134.436C610.539 129.276 612.295 127.366 616.556 127.366H624.434V162.714Z" fill="black"/>
<path d="M526.393 104V161.545H511.406V104H477V243.29H511.47V185.439H526.243V243.29H560.757V104H526.393Z" fill="black"/>
<path d="M439.236 132.126H462.616V105.169H404.68V244.459H462.659V217.478H439.108V186.608H459.084V162.714H439.108L439.236 132.126Z" fill="black"/>
<path d="M372.565 173.905C377.323 172.936 381.629 170.184 384.752 166.116C387.875 162.047 389.621 156.915 389.693 151.589V128.025C389.501 115.418 381.129 105.261 372.008 105.261H306.793V244.457H340.771V186.606H349.335C353.617 186.606 355.309 188.798 355.309 193.841V244.457H389.693V196.55C389.693 184.25 380.68 174.942 372.565 173.905ZM355.159 155.831C355.287 160.025 353.681 162.523 350.877 162.9H340.728V127.554H349.292C353.574 127.554 355.33 129.91 355.266 134.622L355.159 155.831Z" fill="black"/>
</svg>
