<svg width="914" height="286" viewBox="0 0 914 286" fill="none" xmlns="http://www.w3.org/2000/svg">
<g filter="url(#filter0_d)">
<path d="M910 0H4V278H910V0Z" fill="white"/>
<path d="M196.527 41.9212C184.601 48.8727 172.44 55.8007 162.271 67.4417C152.807 78.0692 150.345 96.1905 156.04 109.858C162.161 123.164 170.104 135.356 179.591 146.006C173.231 110.201 179.272 73.0719 196.527 41.9212Z" fill="#37A58C"/>
<path d="M186.614 152.933C198.325 161.11 210.037 169.052 223.654 172.516C238.512 176.24 252.258 169.547 261.036 156.398C267.871 143.993 273.211 130.661 276.922 116.739C251.939 140.712 219.753 153.612 186.614 152.933Z" fill="#DD0060"/>
<path d="M274.653 53.0672C271.814 47.3457 267.743 42.4783 262.797 38.8916C257.851 35.305 252.181 33.1087 246.284 32.4953C232.95 31.9338 219.61 33.433 206.654 36.949C235.922 47.4353 265.232 74.134 280.069 105.121C280.733 87.2831 281.461 68.1957 274.653 53.0672Z" fill="#505050"/>
<path d="M757.666 230.437C759.444 225.063 760.216 219.348 759.936 213.637V105.239H726.215V212.788C726.229 213.809 726.06 214.824 725.718 215.773C725.376 216.723 724.867 217.588 724.221 218.322C723.575 219.055 722.804 219.64 721.952 220.045C721.1 220.451 720.184 220.667 719.256 220.682H718.528C716.696 220.818 714.889 220.151 713.501 218.827C712.113 217.503 711.258 215.629 711.12 213.613V105.216H677.549V213.613C677.225 219.323 677.953 225.046 679.69 230.437C681.066 233.663 683.071 236.515 685.561 238.792C688.051 241.068 690.966 242.714 694.099 243.611C697.113 244.232 700.176 244.516 703.242 244.459H734.051C737.129 244.523 740.205 244.255 743.236 243.657C746.38 242.767 749.305 241.119 751.8 238.832C754.296 236.546 756.299 233.68 757.666 230.437Z" fill="black"/>
<path d="M598.674 105.169C587.777 105.169 580.176 115.537 580.262 127.932V244.459H614.518V186.608H628.477V244.459H662.562V105.169H598.674ZM628.434 162.714H614.539V134.436C614.539 129.276 616.295 127.366 620.556 127.366H628.434V162.714Z" fill="black"/>
<path d="M530.868 105.169V162.714H515.881V105.169H481.475V244.459H515.945V186.608H530.718V244.459H565.232V105.169H530.868Z" fill="black"/>
<path d="M443.236 132.126H466.616V105.169H408.68V244.459H466.659V217.478H443.108V186.608H463.084V162.714H443.108L443.236 132.126Z" fill="black"/>
<path d="M376.565 173.905C381.323 172.936 385.629 170.184 388.752 166.116C391.875 162.047 393.621 156.915 393.693 151.589V128.025C393.501 115.418 385.129 105.261 376.008 105.261H310.793V244.457H344.771V186.606H353.335C357.617 186.606 359.309 188.798 359.309 193.841V244.457H393.693V196.55C393.693 184.25 384.68 174.942 376.565 173.905ZM359.159 155.831C359.287 160.025 357.681 162.523 354.877 162.9H344.728V127.554H353.292C357.574 127.554 359.33 129.91 359.266 134.622L359.159 155.831Z" fill="black"/>
</g>
<defs>
<filter id="filter0_d" x="0" y="0" width="914" height="286" filterUnits="userSpaceOnUse" color-interpolation-filters="sRGB">
<feFlood flood-opacity="0" result="BackgroundImageFix"/>
<feColorMatrix in="SourceAlpha" type="matrix" values="0 0 0 0 0 0 0 0 0 0 0 0 0 0 0 0 0 0 127 0"/>
<feOffset dy="4"/>
<feGaussianBlur stdDeviation="2"/>
<feColorMatrix type="matrix" values="0 0 0 0 0 0 0 0 0 0 0 0 0 0 0 0 0 0 0.25 0"/>
<feBlend mode="normal" in2="BackgroundImageFix" result="effect1_dropShadow"/>
<feBlend mode="normal" in="SourceGraphic" in2="effect1_dropShadow" result="shape"/>
</filter>
</defs>
</svg>
