<svg width="906" height="249" viewBox="0 0 906 249" fill="none" xmlns="http://www.w3.org/2000/svg">
<rect width="906" height="249" fill="white"/>
<path d="M192.527 37.5481C180.601 43.7745 168.44 49.9798 158.271 60.4064C148.807 69.9253 146.345 86.1562 152.04 98.3979C158.161 110.316 166.104 121.236 175.591 130.775C169.231 98.705 175.272 65.4493 192.527 37.5481V37.5481Z" fill="#37A58C"/>
<path d="M182.614 136.98C194.325 144.304 206.037 151.417 219.654 154.52C234.512 157.855 248.258 151.86 257.036 140.083C263.871 128.972 269.211 117.031 272.922 104.561C247.939 126.033 215.753 137.588 182.614 136.98V136.98Z" fill="#DD0060"/>
<path d="M270.653 47.5314C267.814 42.4068 263.743 38.0471 258.797 34.8346C253.851 31.6221 248.181 29.6549 242.284 29.1055C228.95 28.6026 215.61 29.9454 202.654 33.0946C231.922 42.487 261.232 66.4006 276.069 94.1555C276.733 78.178 277.461 61.0818 270.653 47.5314Z" fill="#505050"/>
<path d="M753.666 206.399C755.444 201.585 756.216 196.466 755.936 191.351V94.2611H722.215V190.591C722.229 191.505 722.06 192.414 721.718 193.264C721.376 194.115 720.867 194.89 720.221 195.547C719.575 196.204 718.804 196.728 717.952 197.091C717.1 197.454 716.184 197.648 715.256 197.661H714.528C712.696 197.783 710.889 197.186 709.501 196C708.113 194.814 707.258 193.135 707.12 191.33V94.24H673.549V191.33C673.225 196.444 673.953 201.57 675.69 206.399C677.066 209.288 679.071 211.843 681.561 213.882C684.051 215.921 686.966 217.395 690.099 218.198C693.113 218.755 696.176 219.009 699.242 218.958H730.051C733.129 219.015 736.205 218.775 739.236 218.24C742.38 217.442 745.305 215.966 747.8 213.918C750.296 211.87 752.299 209.303 753.666 206.399V206.399Z" fill="black"/>
<path d="M594.674 94.1977C583.777 94.1977 576.176 103.485 576.262 114.587V218.958H610.518V167.142H624.477V218.958H658.562V94.1977H594.674ZM624.434 145.74H610.539V120.412C610.539 115.79 612.295 114.08 616.556 114.08H624.434V145.74Z" fill="black"/>
<path d="M526.868 94.1977V145.74H511.881V94.1977H477.475V218.958H511.945V167.142H526.718V218.958H561.232V94.1977H526.868Z" fill="black"/>
<path d="M439.236 118.343H462.616V94.1977H404.68V218.958H462.659V194.791H439.108V167.142H459.084V145.74H439.108L439.236 118.343Z" fill="black"/>
<path d="M372.565 155.764C377.323 154.896 381.629 152.431 384.752 148.787C387.875 145.143 389.621 140.546 389.693 135.776V114.67C389.501 103.378 381.129 94.2809 372.008 94.2809H306.793V218.956H340.771V167.14H349.335C353.617 167.14 355.309 169.103 355.309 173.62V218.956H389.693V176.047C389.693 165.03 380.68 156.693 372.565 155.764ZM355.159 139.575C355.287 143.332 353.681 145.569 350.877 145.907H340.728V114.248H349.292C353.574 114.248 355.33 116.358 355.266 120.579L355.159 139.575Z" fill="black"/>
</svg>
